<?xml version="1.0" standalone="no"?>
<!DOCTYPE svg PUBLIC "-//W3C//DTD SVG 20010904//EN"
 "http://www.w3.org/TR/2001/REC-SVG-20010904/DTD/svg10.dtd">
<svg version="1.0" xmlns="http://www.w3.org/2000/svg"
 width="618.000000pt" height="377.000000pt" viewBox="0 0 618.000000 377.000000"
 preserveAspectRatio="xMidYMid meet">

<g transform="translate(0.000000,377.000000) scale(0.100000,-0.100000)"
fill="#000000" stroke="none">
<path d="M5080 3410 c0 -20 -7 -20 -339 -20 -216 0 -342 4 -346 10 -4 7 -257
10 -725 10 -468 0 -721 -3 -725 -10 -4 -7 -303 -10 -866 -10 l-859 0 0 -509
c0 -329 -4 -512 -10 -516 -14 -8 -14 -1102 0 -1110 6 -4 10 -70 10 -166 l0
-159 -24 -10 -25 -9 25 -67 c13 -37 24 -70 25 -73 0 -3 12 28 27 69 27 74 27
75 7 80 -18 5 -20 15 -23 119 l-3 113 31 -26 32 -26 355 0 c340 0 357 -1 389
-20 20 -13 35 -32 39 -50 7 -31 25 -42 25 -15 0 8 13 29 29 47 l29 33 371 5
371 5 26 27 27 26 21 -31 c38 -55 45 -57 362 -57 313 0 310 0 338 -54 l15 -30
10 26 c21 56 30 58 339 58 311 0 343 5 362 56 6 15 9 32 7 38 -3 6 -10 -2 -16
-18 -22 -55 -22 -55 -343 -56 l-296 0 -31 -26 -31 -26 -31 26 -31 26 -297 0
c-287 0 -299 1 -325 21 -14 11 -26 29 -26 40 0 10 -5 19 -11 19 -6 0 -8 9 -4
20 10 31 -9 23 -22 -9 -6 -16 -23 -37 -39 -47 -26 -18 -57 -19 -390 -22 l-363
-3 -31 -29 -31 -29 -24 27 -23 27 -369 5 c-330 4 -371 7 -394 23 -31 21 -49
57 -49 97 l0 30 1585 0 1585 0 0 1055 0 1055 48 1 c101 2 123 -5 152 -54 19
-30 20 -54 20 -442 0 -249 4 -425 10 -447 6 -20 24 -48 40 -62 17 -13 30 -28
30 -31 0 -3 -13 -17 -29 -31 -47 -40 -51 -76 -51 -517 l0 -404 -23 -34 c-12
-19 -37 -39 -54 -44 -43 -14 -52 -25 -20 -25 14 0 39 12 57 26 61 52 60 43 60
504 0 354 2 426 15 450 18 35 52 60 82 60 14 0 23 6 23 15 0 9 -9 15 -23 15
-32 0 -62 23 -81 64 -14 30 -16 86 -16 451 0 431 0 436 -43 483 l-20 22 241 0
c133 0 245 1 250 3 4 1 8 -8 10 -21 4 -25 4 -25 101 11 l54 20 -63 23 c-76 29
-90 30 -90 4z m-2142 -545 l2 -505 -855 0 -855 0 0 503 c0 277 2 506 4 508 2
2 386 3 853 2 l848 -3 3 -505z m1402 -530 l0 -1025 -670 0 -670 0 0 1025 0
1025 670 0 670 0 0 -1025z m-1400 -525 l0 -500 -845 0 -845 0 0 500 0 500 845
0 845 0 0 -500z"/>
<path d="M3574 2412 c-25 -16 -28 -102 -3 -102 5 0 4 11 -1 25 -11 30 4 79 23
73 16 -6 21 -66 6 -84 -8 -9 -8 -14 -1 -14 28 0 36 85 10 101 -16 11 -20 11
-34 1z"/>
<path d="M3743 2413 c-7 -2 -13 -9 -13 -15 0 -7 5 -7 13 1 8 6 17 8 20 4 12
-12 7 -41 -7 -46 -8 -3 -20 -15 -26 -26 -10 -19 -8 -21 22 -20 25 1 28 3 9 6
l-23 5 28 29 c22 23 26 33 18 46 -12 19 -23 24 -41 16z"/>
<path d="M3910 2400 c-24 -24 -25 -49 -5 -76 15 -18 15 -18 9 9 -5 23 -3 27
16 27 19 0 21 -4 16 -25 -7 -27 8 -35 18 -10 9 25 -4 45 -30 45 -13 0 -24 4
-24 8 0 15 22 30 36 25 8 -3 14 -3 14 0 0 16 -33 14 -50 -3z"/>
<path d="M3996 2404 c-23 -23 -19 -94 5 -94 6 0 5 8 -1 19 -21 39 -4 86 26 74
17 -6 18 -64 2 -82 -11 -11 -10 -13 2 -9 19 6 26 74 9 94 -15 18 -24 18 -43
-2z"/>
<path d="M3305 2400 c-3 -5 -1 -10 4 -10 15 0 14 -67 -1 -73 -7 -3 -2 -6 12
-6 24 -1 25 1 22 49 -3 33 -8 50 -17 50 -8 0 -17 -4 -20 -10z"/>
<path d="M3401 2381 c-26 -36 -27 -51 -2 -51 11 0 23 -5 27 -11 12 -19 20 7
16 51 -5 48 -14 50 -41 11z m22 -21 c-5 -20 -15 -25 -26 -13 -8 7 11 33 23 33
5 0 6 -9 3 -20z"/>
<path d="M3485 2377 c-29 -47 -29 -47 -1 -47 14 0 26 -5 26 -12 0 -9 3 -9 11
-1 13 13 8 85 -6 90 -5 1 -19 -12 -30 -30z m25 -12 c0 -16 -6 -25 -15 -25 -18
0 -19 4 -3 30 16 26 18 25 18 -5z"/>
<path d="M3810 2385 c0 -20 5 -25 26 -25 23 0 26 -3 22 -25 -6 -30 8 -34 17
-5 9 27 -1 40 -31 40 -34 0 -31 28 4 33 25 4 25 4 -5 6 -29 1 -33 -2 -33 -24z"/>
<path d="M3640 2384 c0 -6 5 -15 11 -21 8 -8 8 -17 0 -32 -7 -12 -8 -21 -2
-21 5 0 12 7 15 17 6 14 8 14 21 -3 8 -10 15 -14 15 -8 0 5 -5 15 -12 22 -8 8
-8 15 2 27 7 8 10 18 7 22 -4 3 -9 -2 -13 -11 -6 -16 -8 -16 -25 0 -11 9 -19
13 -19 8z"/>
<path d="M3810 2320 c0 -5 5 -10 11 -10 5 0 7 5 4 10 -3 6 -8 10 -11 10 -2 0
-4 -4 -4 -10z"/>
<path d="M1840 1875 c-18 -22 -8 -49 22 -55 20 -4 25 -9 19 -19 -5 -8 -16 -11
-25 -8 -9 4 -16 2 -16 -3 0 -6 11 -10 24 -10 16 0 26 7 30 23 11 40 6 66 -13
77 -25 13 -26 13 -41 -5z m46 -34 c-10 -16 -36 -13 -43 5 -8 22 18 37 36 20 7
-8 10 -19 7 -25z"/>
<path d="M1929 1873 c-13 -16 -12 -17 3 -5 19 15 38 9 38 -12 0 -7 -11 -23
-25 -36 -33 -31 -32 -40 8 -39 23 1 26 3 10 6 -29 6 -29 14 2 43 19 18 22 27
14 41 -12 24 -32 24 -50 2z"/>
<path d="M2023 1882 c-18 -11 -26 -58 -13 -81 24 -47 79 -7 65 47 -6 24 -21
42 -35 42 -3 0 -10 -4 -17 -8z m32 -48 c0 -28 -4 -39 -15 -39 -16 0 -26 45
-16 72 11 28 31 7 31 -33z"/>
<path d="M2190 1875 c-9 -11 -10 -16 -2 -11 9 5 12 -3 12 -33 0 -22 -5 -42
-12 -44 -7 -3 0 -6 16 -6 22 -1 26 2 18 12 -6 7 -12 32 -14 56 -3 41 -4 43
-18 26z"/>
<path d="M2272 1881 c-9 -5 -12 -24 -10 -52 3 -39 6 -44 29 -47 20 -2 28 2 33
20 9 37 7 56 -10 72 -18 18 -24 19 -42 7z m43 -61 c-8 -32 -11 -34 -30 -27
-18 8 -20 58 -3 75 18 18 41 -15 33 -48z"/>
<path d="M2364 1882 c-13 -8 -17 -89 -5 -96 4 -3 7 5 7 17 -1 13 5 22 14 22 9
0 15 -9 14 -22 0 -13 3 -23 7 -23 12 0 20 33 10 43 -7 7 -7 16 0 28 7 14 5 21
-10 29 -23 12 -23 12 -37 2z m32 -13 c10 -17 -13 -36 -27 -22 -12 12 -4 33 11
33 5 0 12 -5 16 -11z"/>
<path d="M2446 1874 c-17 -17 -21 -61 -7 -82 4 -8 19 -12 32 -10 20 2 25 10
27 41 3 36 -10 67 -29 67 -4 0 -15 -7 -23 -16z m42 -34 c4 -40 -11 -59 -33
-40 -18 15 -20 51 -3 68 19 19 33 9 36 -28z"/>
<path d="M1754 1868 c-4 -7 -3 -8 4 -4 8 5 12 -5 12 -33 0 -22 -5 -42 -12 -44
-7 -3 3 -5 22 -5 19 0 29 2 23 5 -8 3 -13 23 -13 49 0 32 -4 44 -14 44 -8 0
-18 -5 -22 -12z"/>
<path d="M2100 1845 c10 -12 10 -21 2 -40 -7 -14 -8 -25 -3 -25 5 0 12 7 15
17 6 14 8 14 21 -3 8 -10 15 -14 15 -8 0 5 -5 15 -12 22 -9 9 -9 15 0 24 7 7
12 17 12 23 0 5 -7 1 -15 -9 -13 -17 -15 -17 -21 -3 -3 10 -11 17 -16 17 -6 0
-5 -7 2 -15z"/>
<path d="M1002 3374 c-22 -15 -22 -19 -22 -229 0 -231 -5 -261 -49 -272 -43
-10 -45 -16 -10 -27 54 -18 59 -37 59 -270 0 -174 3 -212 15 -226 14 -15 14
-18 0 -30 -13 -10 -15 -47 -15 -226 0 -235 -5 -259 -54 -273 l-31 -8 25 -11
c53 -21 55 -29 60 -267 5 -235 10 -255 54 -255 19 0 17 3 -11 26 l-33 25 0
221 c0 189 -2 224 -16 239 -15 16 -15 20 0 41 13 19 16 57 16 239 0 196 2 217
18 232 10 10 24 17 30 17 7 0 12 7 12 15 0 8 -9 15 -20 15 -35 0 -40 31 -40
252 0 177 -3 217 -16 236 -14 20 -14 24 0 44 13 19 16 59 16 236 l0 214 31 29
c33 31 19 40 -19 13z"/>
<path d="M5500 3338 c29 -48 25 -68 -26 -137 -2 -2 -13 -4 -25 -5 -27 -1 -36
-21 -14 -30 16 -6 36 10 72 59 l21 30 7 -37 c9 -49 25 -62 53 -42 12 8 22 20
22 26 0 7 -5 6 -15 -2 -16 -13 -25 2 -39 66 -8 37 18 76 54 78 27 1 40 26 14
26 -10 0 -30 -12 -46 -27 l-27 -26 -10 26 c-8 19 -18 27 -36 27 l-25 0 20 -32z"/>
<path d="M661 2941 c-8 -5 -12 -18 -8 -30 3 -12 1 -24 -4 -27 -16 -9 -10 -33
11 -44 19 -10 20 -10 8 9 -9 15 -10 23 -1 32 16 16 36 1 30 -22 -3 -11 -1 -19
4 -19 9 0 13 17 9 35 -2 6 -2 20 -2 32 1 12 -2 24 -7 28 -5 3 -7 -4 -4 -15 4
-15 0 -20 -16 -20 -24 0 -25 4 -11 31 12 21 11 22 -9 10z"/>
<path d="M746 2934 c-23 -22 -19 -94 5 -94 5 0 3 11 -3 25 -16 35 5 83 27 65
18 -15 20 -61 3 -79 -11 -11 -10 -13 2 -9 9 3 16 20 18 46 2 32 -1 43 -17 51
-15 8 -23 7 -35 -5z"/>
<path d="M485 2931 c-3 -6 -1 -11 4 -11 6 0 11 -16 11 -35 0 -19 -4 -35 -10
-35 -5 0 -10 -4 -10 -8 0 -4 11 -8 25 -8 25 0 31 7 18 19 -4 4 -7 24 -7 44 -1
36 -18 54 -31 34z"/>
<path d="M581 2911 c-26 -37 -27 -51 -1 -51 11 0 20 -4 20 -10 0 -5 5 -10 10
-10 6 0 10 23 10 50 0 57 -10 62 -39 21z m19 -21 c0 -11 -7 -20 -15 -20 -18 0
-19 12 -3 28 16 16 18 15 18 -8z"/>
<path d="M4915 2405 c-11 -8 -15 -15 -8 -15 6 0 15 5 18 10 9 15 25 2 25 -19
0 -10 -11 -26 -25 -35 -34 -23 -31 -36 8 -35 25 1 27 3 9 6 l-24 5 22 23 c22
23 25 65 5 72 -6 2 -20 -3 -30 -12z"/>
<path d="M5090 2400 c-11 -11 -20 -27 -20 -36 0 -22 19 -54 32 -54 9 0 9 3 0
12 -19 19 -14 38 9 38 17 0 20 -5 17 -25 -6 -27 6 -34 16 -10 9 25 -4 45 -30
45 -13 0 -24 4 -24 8 0 15 22 30 36 25 8 -3 14 -3 14 0 0 16 -33 14 -50 -3z"/>
<path d="M5176 2404 c-23 -22 -19 -94 5 -94 5 0 3 11 -3 25 -16 35 5 83 27 65
18 -15 20 -61 3 -79 -11 -11 -10 -13 2 -9 20 6 27 88 8 99 -18 12 -24 11 -42
-7z"/>
<path d="M4990 2385 c0 -20 5 -25 24 -25 33 0 43 -20 20 -37 -19 -14 -19 -15
1 -11 14 2 20 11 20 28 0 20 -6 26 -27 28 -34 4 -37 29 -5 35 19 4 18 4 -5 6
-24 1 -28 -3 -28 -24z"/>
<path d="M4990 2320 c0 -5 5 -10 11 -10 5 0 7 5 4 10 -3 6 -8 10 -11 10 -2 0
-4 -4 -4 -10z"/>
<path d="M570 1875 c-13 -16 -16 -67 -5 -85 10 -16 52 -12 59 6 13 33 6 73
-13 84 -25 13 -26 13 -41 -5z m38 -7 c16 -16 15 -53 -3 -68 -21 -17 -35 -4
-35 34 0 45 14 58 38 34z"/>
<path d="M662 1881 c-8 -4 -12 -17 -11 -27 2 -11 0 -24 -4 -31 -8 -13 1 -43
14 -43 5 0 8 10 6 23 -1 14 3 22 13 22 9 0 15 -9 14 -22 0 -13 3 -23 8 -23 8
0 12 18 8 35 -2 6 -2 21 -1 34 2 33 -21 49 -47 32z m34 -12 c10 -17 -13 -36
-27 -22 -12 12 -4 33 11 33 5 0 12 -5 16 -11z"/>
<path d="M746 1874 c-23 -22 -19 -94 5 -94 5 0 3 11 -3 25 -16 35 5 83 27 65
18 -15 20 -61 3 -79 -11 -11 -10 -13 2 -9 20 6 27 88 8 99 -18 12 -24 11 -42
-7z"/>
<path d="M488 1874 c6 -3 12 -23 12 -44 0 -21 -6 -41 -12 -43 -7 -3 0 -6 15
-6 19 -1 26 3 21 11 -4 6 -8 28 -8 47 -1 28 -5 36 -21 38 -11 2 -14 0 -7 -3z"/>
<path d="M2113 834 c-17 -14 -17 -15 4 -9 34 9 38 -14 8 -45 -15 -16 -24 -33
-21 -39 9 -14 56 -14 56 0 0 6 -9 9 -20 6 -26 -7 -25 -1 5 34 35 43 10 86 -32
53z"/>
<path d="M1948 795 c3 -30 1 -45 -7 -45 -6 0 -11 -4 -11 -10 0 -5 12 -10 26
-10 20 0 25 4 20 16 -3 9 -6 33 -6 55 0 26 -4 39 -14 39 -10 0 -12 -11 -8 -45z"/>
<path d="M2017 833 c-12 -11 -8 -40 8 -53 9 -8 15 -8 15 -2 0 6 -6 12 -12 15
-10 3 -10 9 0 26 11 19 4 29 -11 14z"/>
<path d="M2060 821 c7 -14 7 -22 0 -26 -8 -5 -8 -11 -1 -19 7 -9 7 -16 -1 -24
-9 -9 -9 -12 0 -12 6 0 14 11 18 25 7 30 -2 75 -17 75 -6 0 -6 -6 1 -19z"/>
<path d="M2190 819 c-11 -20 -5 -79 8 -79 4 0 7 19 7 42 0 24 5 43 13 45 17 6
31 -37 21 -64 -5 -13 -5 -23 0 -23 15 0 23 57 11 79 -6 12 -19 21 -30 21 -11
0 -24 -9 -30 -21z"/>
<path d="M3525 830 c-3 -5 -1 -10 4 -10 15 0 14 -63 -1 -78 -9 -9 -6 -12 17
-12 23 0 26 3 17 12 -7 7 -12 31 -12 55 0 41 -11 55 -25 33z"/>
<path d="M3615 807 c-28 -47 -29 -47 -6 -47 11 0 23 -4 26 -10 15 -24 26 -7
23 37 -4 57 -17 63 -43 20z m25 -12 c0 -16 -6 -25 -15 -25 -18 0 -19 4 -3 30
16 26 18 25 18 -5z"/>
<path d="M3703 807 c-28 -41 -28 -47 -3 -47 10 0 23 -7 28 -16 7 -13 10 -13
14 -3 6 18 -2 99 -11 99 -3 0 -16 -15 -28 -33z m27 -11 c0 -15 -18 -31 -26
-23 -7 7 7 37 17 37 5 0 9 -6 9 -14z"/>
<path d="M3777 833 c-4 -3 -7 -23 -7 -44 0 -45 26 -67 54 -46 20 15 19 88 -2
95 -10 3 -10 -2 -1 -22 17 -36 -3 -85 -26 -66 -17 15 -19 43 -5 71 10 18 1 27
-13 12z"/>
<path d="M2010 746 c0 -2 7 -6 15 -10 8 -3 15 -1 15 4 0 6 -7 10 -15 10 -8 0
-15 -2 -15 -4z"/>
<path d="M1090 571 c-24 -7 -24 -7 -3 -13 16 -4 26 -22 42 -74 28 -99 29 -109
3 -144 -18 -24 -30 -30 -50 -28 -19 2 -28 -2 -30 -14 -2 -13 3 -18 18 -18 39
0 125 111 167 213 24 59 24 61 6 74 -15 12 -18 12 -21 -2 -2 -9 1 -22 8 -30 9
-10 5 -26 -16 -67 l-27 -53 -19 65 c-28 99 -32 104 -78 91z"/>
</g>
</svg>
